<svg xmlns="http://www.w3.org/2000/svg" xmlns:xlink="http://www.w3.org/1999/xlink" width="500" zoomAndPan="magnify" viewBox="0 0 375 374.999991" height="500" preserveAspectRatio="xMidYMid meet" version="1.0"><defs><g/><clipPath id="daf90f865e"><path d="M 125.390625 127.582031 L 167.011719 127.582031 L 167.011719 159.105469 L 125.390625 159.105469 Z M 125.390625 127.582031 " clip-rule="nonzero"/></clipPath><clipPath id="ae560025ef"><path d="M 125.492188 159.105469 L 125.492188 127.582031 L 146.25 136.902344 L 167.011719 127.582031 L 167.011719 159.105469 Z M 125.492188 159.105469 " clip-rule="nonzero"/></clipPath><clipPath id="4f03118d40"><path d="M 124.066406 131.574219 L 168.4375 131.574219 L 168.4375 175.945312 L 124.066406 175.945312 Z M 124.066406 131.574219 " clip-rule="nonzero"/></clipPath><clipPath id="4e7aec8763"><path d="M 146.25 131.574219 C 134 131.574219 124.066406 141.503906 124.066406 153.757812 C 124.066406 166.011719 134 175.945312 146.25 175.945312 C 158.503906 175.945312 168.4375 166.011719 168.4375 153.757812 C 168.4375 141.503906 158.503906 131.574219 146.25 131.574219 Z M 146.25 131.574219 " clip-rule="nonzero"/></clipPath><clipPath id="e581265a36"><path d="M 146.25 135.617188 L 256.855469 135.617188 L 256.855469 188.742188 L 146.25 188.742188 Z M 146.25 135.617188 " clip-rule="nonzero"/></clipPath><clipPath id="5261781cd4"><path d="M 183.105469 138.808594 C 188.75 136.882812 195.210938 135.617188 201.53125 135.617188 C 207.851562 135.617188 213.933594 136.703125 219.539062 138.628906 C 219.65625 138.6875 219.777344 138.6875 219.898438 138.75 C 240.945312 146.453125 256.449219 166.804688 256.75 188.742188 L 146.25 188.742188 C 146.550781 166.683594 161.816406 146.335938 183.105469 138.808594 Z M 183.105469 138.808594 " clip-rule="nonzero"/></clipPath><clipPath id="6768ff8f8f"><path d="M 130.261719 174.722656 L 209 174.722656 L 209 177.449219 L 130.261719 177.449219 Z M 130.261719 174.722656 " clip-rule="nonzero"/></clipPath><clipPath id="18ae26528e"><path d="M 207.640625 174.722656 C 208.390625 174.722656 209.003906 175.335938 209.003906 176.085938 C 209.003906 176.839844 208.390625 177.449219 207.640625 177.449219 L 131.625 177.449219 C 130.875 177.449219 130.261719 176.839844 130.261719 176.085938 C 130.261719 175.335938 130.875 174.722656 131.625 174.722656 Z M 207.640625 174.722656 " clip-rule="nonzero"/></clipPath><clipPath id="d5766c1d26"><path d="M 150 152 L 159 152 L 159 157 L 150 157 Z M 150 152 " clip-rule="nonzero"/></clipPath><clipPath id="4b081eb2f1"><path d="M 150.277344 153.667969 L 157.976562 151.605469 L 158.902344 155.054688 L 151.203125 157.121094 Z M 150.277344 153.667969 " clip-rule="nonzero"/></clipPath><clipPath id="94c3dfd312"><path d="M 156.238281 152.070312 C 157.191406 151.816406 158.171875 152.378906 158.425781 153.332031 C 158.683594 154.285156 158.117188 155.265625 157.164062 155.523438 L 152.929688 156.65625 C 151.976562 156.914062 150.996094 156.347656 150.738281 155.394531 C 150.484375 154.441406 151.050781 153.460938 152.003906 153.203125 Z M 156.238281 152.070312 " clip-rule="nonzero"/></clipPath><clipPath id="4bca703eaa"><path d="M 132 152 L 141 152 L 141 157 L 132 157 Z M 132 152 " clip-rule="nonzero"/></clipPath><clipPath id="0970fd9ec1"><path d="M 133.429688 151.609375 L 141.128906 153.671875 L 140.203125 157.121094 L 132.503906 155.058594 Z M 133.429688 151.609375 " clip-rule="nonzero"/></clipPath><clipPath id="1438a6bee9"><path d="M 139.390625 153.207031 C 140.34375 153.460938 140.910156 154.441406 140.652344 155.394531 C 140.398438 156.347656 139.417969 156.914062 138.464844 156.65625 L 134.230469 155.523438 C 133.277344 155.265625 132.710938 154.289062 132.964844 153.335938 C 133.222656 152.378906 134.203125 151.816406 135.15625 152.070312 Z M 139.390625 153.207031 " clip-rule="nonzero"/></clipPath><clipPath id="6e170f45f5"><path d="M 110.945312 177.292969 L 227.765625 177.292969 L 227.765625 188.742188 L 110.945312 188.742188 Z M 110.945312 177.292969 " clip-rule="nonzero"/></clipPath><clipPath id="c833d44505"><path d="M 222.027344 177.292969 C 225.1875 177.292969 227.753906 179.855469 227.753906 183.015625 C 227.753906 186.179688 225.1875 188.742188 222.027344 188.742188 L 116.671875 188.742188 C 113.507812 188.742188 110.945312 186.179688 110.945312 183.015625 C 110.945312 179.855469 113.507812 177.292969 116.671875 177.292969 Z M 222.027344 177.292969 " clip-rule="nonzero"/></clipPath></defs><g clip-path="url(#daf90f865e)"><g clip-path="url(#ae560025ef)"><path fill="#ffffff" d="M 167.011719 159.105469 L 125.511719 159.105469 L 125.511719 127.582031 L 167.011719 127.582031 Z M 167.011719 159.105469 " fill-opacity="1" fill-rule="nonzero"/></g></g><g clip-path="url(#4f03118d40)"><g clip-path="url(#4e7aec8763)"><path fill="#ffffff" d="M 124.066406 131.574219 L 168.4375 131.574219 L 168.4375 175.945312 L 124.066406 175.945312 Z M 124.066406 131.574219 " fill-opacity="1" fill-rule="nonzero"/></g></g><g clip-path="url(#e581265a36)"><g clip-path="url(#5261781cd4)"><path fill="#ffffff" d="M 146.25 135.617188 L 256.648438 135.617188 L 256.648438 188.742188 L 146.25 188.742188 Z M 146.25 135.617188 " fill-opacity="1" fill-rule="nonzero"/></g></g><g clip-path="url(#6768ff8f8f)"><g clip-path="url(#18ae26528e)"><path fill="#000000" d="M 130.261719 174.722656 L 209 174.722656 L 209 177.449219 L 130.261719 177.449219 Z M 130.261719 174.722656 " fill-opacity="1" fill-rule="nonzero"/></g></g><g clip-path="url(#d5766c1d26)"><g clip-path="url(#4b081eb2f1)"><g clip-path="url(#94c3dfd312)"><path fill="#ff3131" d="M 150.277344 153.667969 L 157.964844 151.609375 L 158.886719 155.058594 L 151.203125 157.121094 Z M 150.277344 153.667969 " fill-opacity="1" fill-rule="nonzero"/></g></g></g><g clip-path="url(#4bca703eaa)"><g clip-path="url(#0970fd9ec1)"><g clip-path="url(#1438a6bee9)"><path fill="#ff3131" d="M 133.429688 151.609375 L 141.113281 153.667969 L 140.191406 157.121094 L 132.503906 155.058594 Z M 133.429688 151.609375 " fill-opacity="1" fill-rule="nonzero"/></g></g></g><g clip-path="url(#6e170f45f5)"><g clip-path="url(#c833d44505)"><path fill="#ffffff" d="M 110.945312 177.292969 L 227.765625 177.292969 L 227.765625 188.742188 L 110.945312 188.742188 Z M 110.945312 177.292969 " fill-opacity="1" fill-rule="nonzero"/></g></g><g fill="#ffffff" fill-opacity="1"><g transform="translate(80.955289, 238.368793)"><g><path d="M 12.3125 0.296875 C 11.519531 0.296875 10.601562 0.28125 9.5625 0.25 C 8.519531 0.226562 7.476562 0.203125 6.4375 0.171875 C 5.40625 0.148438 4.476562 0.117188 3.65625 0.078125 C 2.832031 0.046875 2.242188 0.0195312 1.890625 0 C 1.640625 -0.0195312 1.429688 -0.117188 1.265625 -0.296875 C 1.097656 -0.484375 1.015625 -0.695312 1.015625 -0.9375 C 1.015625 -3.019531 1.035156 -5.144531 1.078125 -7.3125 C 1.128906 -9.488281 1.191406 -11.628906 1.265625 -13.734375 C 1.335938 -15.835938 1.410156 -17.804688 1.484375 -19.640625 C 1.554688 -21.472656 1.628906 -23.078125 1.703125 -24.453125 C 1.703125 -24.703125 1.785156 -24.910156 1.953125 -25.078125 C 2.117188 -25.242188 2.328125 -25.335938 2.578125 -25.359375 C 3.222656 -25.410156 4.035156 -25.445312 5.015625 -25.46875 C 5.992188 -25.5 6.992188 -25.515625 8.015625 -25.515625 C 9.046875 -25.515625 9.945312 -25.515625 10.71875 -25.515625 C 13.351562 -25.515625 15.675781 -24.957031 17.6875 -23.84375 C 19.707031 -22.726562 21.289062 -21.109375 22.4375 -18.984375 C 23.59375 -16.859375 24.171875 -14.285156 24.171875 -11.265625 C 24.171875 -7.304688 23.117188 -4.390625 21.015625 -2.515625 C 18.910156 -0.640625 16.007812 0.296875 12.3125 0.296875 Z M 8.875 -4.921875 C 9.363281 -4.898438 9.875 -4.882812 10.40625 -4.875 C 10.9375 -4.863281 11.453125 -4.859375 11.953125 -4.859375 C 13.210938 -4.878906 14.34375 -5.113281 15.34375 -5.5625 C 16.34375 -6.007812 17.140625 -6.722656 17.734375 -7.703125 C 18.328125 -8.679688 18.625 -9.96875 18.625 -11.5625 C 18.625 -13.414062 18.300781 -15.019531 17.65625 -16.375 C 17.019531 -17.726562 16.132812 -18.785156 15 -19.546875 C 13.863281 -20.304688 12.523438 -20.695312 10.984375 -20.71875 C 10.398438 -20.71875 9.941406 -20.710938 9.609375 -20.703125 C 9.285156 -20.691406 8.910156 -20.675781 8.484375 -20.65625 C 7.898438 -20.632812 7.457031 -20.40625 7.15625 -19.96875 C 6.851562 -19.53125 6.691406 -19 6.671875 -18.375 C 6.597656 -16.601562 6.566406 -14.835938 6.578125 -13.078125 C 6.585938 -11.316406 6.617188 -9.539062 6.671875 -7.75 C 6.691406 -6.851562 6.867188 -6.171875 7.203125 -5.703125 C 7.546875 -5.234375 8.101562 -4.972656 8.875 -4.921875 Z M 8.875 -4.921875 "/></g></g></g><g fill="#ffffff" fill-opacity="1"><g transform="translate(109.93484, 238.368793)"><g><path d="M 12.9375 0.296875 C 10.539062 0.296875 8.414062 -0.109375 6.5625 -0.921875 C 4.71875 -1.734375 3.273438 -3.019531 2.234375 -4.78125 C 1.203125 -6.539062 0.6875 -8.847656 0.6875 -11.703125 C 0.6875 -14.554688 1.195312 -17.019531 2.21875 -19.09375 C 3.25 -21.175781 4.6875 -22.789062 6.53125 -23.9375 C 8.382812 -25.082031 10.519531 -25.65625 12.9375 -25.65625 C 15.375 -25.65625 17.515625 -25.082031 19.359375 -23.9375 C 21.210938 -22.789062 22.648438 -21.175781 23.671875 -19.09375 C 24.703125 -17.019531 25.21875 -14.554688 25.21875 -11.703125 C 25.21875 -8.847656 24.695312 -6.539062 23.65625 -4.78125 C 22.625 -3.019531 21.179688 -1.734375 19.328125 -0.921875 C 17.484375 -0.109375 15.351562 0.296875 12.9375 0.296875 Z M 12.96875 -4.5 C 14.195312 -4.5 15.304688 -4.738281 16.296875 -5.21875 C 17.296875 -5.695312 18.082031 -6.484375 18.65625 -7.578125 C 19.238281 -8.679688 19.53125 -10.15625 19.53125 -12 C 19.53125 -13.78125 19.242188 -15.332031 18.671875 -16.65625 C 18.109375 -17.988281 17.335938 -19.023438 16.359375 -19.765625 C 15.378906 -20.503906 14.25 -20.875 12.96875 -20.875 C 11.6875 -20.875 10.550781 -20.503906 9.5625 -19.765625 C 8.570312 -19.023438 7.796875 -17.988281 7.234375 -16.65625 C 6.679688 -15.332031 6.40625 -13.78125 6.40625 -12 C 6.40625 -10.15625 6.695312 -8.679688 7.28125 -7.578125 C 7.863281 -6.484375 8.648438 -5.695312 9.640625 -5.21875 C 10.628906 -4.738281 11.738281 -4.5 12.96875 -4.5 Z M 12.96875 -4.5 "/></g></g></g><g fill="#ffffff" fill-opacity="1"><g transform="translate(139.964845, 238.368793)"><g><path d="M 19.859375 0.296875 C 19.035156 0.296875 18.222656 -0.0351562 17.421875 -0.703125 C 16.628906 -1.367188 15.863281 -2.21875 15.125 -3.25 C 14.382812 -4.289062 13.671875 -5.394531 12.984375 -6.5625 C 12.296875 -7.738281 11.644531 -8.847656 11.03125 -9.890625 C 10.414062 -10.929688 9.835938 -11.78125 9.296875 -12.4375 C 8.753906 -13.101562 8.253906 -13.4375 7.796875 -13.4375 C 7.046875 -13.4375 6.644531 -12.460938 6.59375 -10.515625 C 6.59375 -9.566406 6.632812 -8.507812 6.71875 -7.34375 C 6.800781 -6.1875 6.894531 -5.050781 7 -3.9375 C 7.113281 -2.832031 7.207031 -1.894531 7.28125 -1.125 C 7.332031 -0.8125 7.253906 -0.550781 7.046875 -0.34375 C 6.835938 -0.132812 6.601562 -0.0078125 6.34375 0.03125 C 6.03125 0.0820312 5.628906 0.113281 5.140625 0.125 C 4.660156 0.132812 4.3125 0.140625 4.09375 0.140625 C 3.851562 0.140625 3.546875 0.132812 3.171875 0.125 C 2.796875 0.113281 2.390625 0.0703125 1.953125 0 C 1.710938 -0.0507812 1.492188 -0.160156 1.296875 -0.328125 C 1.109375 -0.492188 1.015625 -0.722656 1.015625 -1.015625 C 1.015625 -3.117188 1.03125 -5.257812 1.0625 -7.4375 C 1.101562 -9.625 1.160156 -11.765625 1.234375 -13.859375 C 1.304688 -15.953125 1.390625 -17.898438 1.484375 -19.703125 C 1.578125 -21.515625 1.6875 -23.085938 1.8125 -24.421875 C 1.882812 -24.929688 2.1875 -25.242188 2.71875 -25.359375 C 3.03125 -25.429688 3.351562 -25.472656 3.6875 -25.484375 C 4.03125 -25.503906 4.3125 -25.515625 4.53125 -25.515625 C 4.75 -25.515625 5.007812 -25.503906 5.3125 -25.484375 C 5.613281 -25.472656 5.992188 -25.429688 6.453125 -25.359375 C 7.273438 -25.265625 7.960938 -24.84375 8.515625 -24.09375 C 8.992188 -23.175781 9.5625 -22.148438 10.21875 -21.015625 C 10.875 -19.878906 11.550781 -18.738281 12.25 -17.59375 C 12.945312 -16.445312 13.632812 -15.390625 14.3125 -14.421875 C 14.988281 -13.453125 15.597656 -12.671875 16.140625 -12.078125 C 16.679688 -11.492188 17.125 -11.203125 17.46875 -11.203125 C 17.875 -11.203125 18.15625 -11.523438 18.3125 -12.171875 C 18.46875 -12.828125 18.523438 -13.671875 18.484375 -14.703125 C 18.453125 -15.742188 18.359375 -16.851562 18.203125 -18.03125 C 18.046875 -19.21875 17.875 -20.351562 17.6875 -21.4375 C 17.507812 -22.53125 17.363281 -23.441406 17.25 -24.171875 C 17.195312 -24.503906 17.257812 -24.773438 17.4375 -24.984375 C 17.625 -25.191406 17.875 -25.332031 18.1875 -25.40625 C 18.53125 -25.445312 18.867188 -25.472656 19.203125 -25.484375 C 19.546875 -25.503906 19.875 -25.515625 20.1875 -25.515625 C 20.425781 -25.515625 20.675781 -25.5 20.9375 -25.46875 C 21.207031 -25.445312 21.507812 -25.410156 21.84375 -25.359375 C 22.425781 -25.242188 22.726562 -24.929688 22.75 -24.421875 C 22.96875 -22.078125 23.144531 -19.296875 23.28125 -16.078125 C 23.414062 -12.867188 23.46875 -9.332031 23.4375 -5.46875 C 23.4375 -3.320312 23.101562 -1.820312 22.4375 -0.96875 C 21.78125 -0.125 20.921875 0.296875 19.859375 0.296875 Z M 19.859375 0.296875 "/></g></g></g><g fill="#ffffff" fill-opacity="1"><g transform="translate(168.545947, 238.368793)"><g/></g></g><g fill="#ffffff" fill-opacity="1"><g transform="translate(182.420626, 238.368793)"><g><path d="M 10.71875 0.25 C 9.46875 0.25 8.242188 0.0195312 7.046875 -0.4375 C 5.847656 -0.894531 4.765625 -1.613281 3.796875 -2.59375 C 2.835938 -3.570312 2.078125 -4.816406 1.515625 -6.328125 C 0.960938 -7.835938 0.6875 -9.640625 0.6875 -11.734375 C 0.6875 -14.585938 1.21875 -17.046875 2.28125 -19.109375 C 3.34375 -21.179688 4.816406 -22.789062 6.703125 -23.9375 C 8.585938 -25.082031 10.75 -25.65625 13.1875 -25.65625 C 14.664062 -25.65625 16.164062 -25.472656 17.6875 -25.109375 C 19.207031 -24.742188 20.484375 -24.3125 21.515625 -23.8125 C 22.003906 -23.46875 22.222656 -22.957031 22.171875 -22.28125 C 22.148438 -21.945312 22.101562 -21.488281 22.03125 -20.90625 C 21.957031 -20.320312 21.882812 -19.738281 21.8125 -19.15625 C 21.738281 -18.582031 21.675781 -18.09375 21.625 -17.6875 C 21.601562 -17.25 21.4375 -17.003906 21.125 -16.953125 C 20.8125 -16.910156 20.519531 -17.066406 20.25 -17.421875 C 19.457031 -18.421875 18.519531 -19.242188 17.4375 -19.890625 C 16.363281 -20.546875 14.921875 -20.875 13.109375 -20.875 C 11.910156 -20.875 10.789062 -20.535156 9.75 -19.859375 C 8.707031 -19.179688 7.878906 -18.175781 7.265625 -16.84375 C 6.648438 -15.519531 6.34375 -13.878906 6.34375 -11.921875 C 6.34375 -10.109375 6.625 -8.65625 7.1875 -7.5625 C 7.757812 -6.476562 8.519531 -5.707031 9.46875 -5.25 C 10.425781 -4.789062 11.472656 -4.5625 12.609375 -4.5625 C 13.765625 -4.5625 14.757812 -4.804688 15.59375 -5.296875 C 16.425781 -5.796875 17.066406 -6.457031 17.515625 -7.28125 C 17.960938 -8.101562 18.1875 -9 18.1875 -9.96875 C 18.1875 -10.832031 18.09375 -11.507812 17.90625 -12 C 17.726562 -12.5 17.472656 -13.003906 17.140625 -13.515625 C 16.941406 -13.753906 16.894531 -14.015625 17 -14.296875 C 17.113281 -14.578125 17.351562 -14.71875 17.71875 -14.71875 C 19.507812 -14.738281 21.296875 -14.738281 23.078125 -14.71875 C 23.640625 -14.71875 23.941406 -14.425781 23.984375 -13.84375 C 24.179688 -11.757812 24.34375 -9.664062 24.46875 -7.5625 C 24.601562 -5.46875 24.660156 -3.273438 24.640625 -0.984375 C 24.640625 -0.378906 24.347656 -0.0390625 23.765625 0.03125 C 23.160156 0.0625 22.492188 0.078125 21.765625 0.078125 C 21.046875 0.078125 20.238281 0.0507812 19.34375 0 C 19.101562 -0.0195312 18.898438 -0.113281 18.734375 -0.28125 C 18.566406 -0.457031 18.492188 -0.691406 18.515625 -0.984375 C 18.566406 -1.242188 18.613281 -1.546875 18.65625 -1.890625 C 18.707031 -2.242188 18.742188 -2.59375 18.765625 -2.9375 C 18.816406 -3.34375 18.726562 -3.5625 18.5 -3.59375 C 18.269531 -3.632812 18.070312 -3.488281 17.90625 -3.15625 C 17.101562 -1.914062 16.128906 -1.035156 14.984375 -0.515625 C 13.835938 -0.00390625 12.414062 0.25 10.71875 0.25 Z M 10.71875 0.25 "/></g></g></g><g fill="#ffffff" fill-opacity="1"><g transform="translate(212.052182, 238.368793)"><g><path d="M 3.4375 0.140625 C 3.101562 0.140625 2.742188 0.128906 2.359375 0.109375 C 1.972656 0.0859375 1.644531 0.0507812 1.375 0 C 1.0625 -0.0507812 0.832031 -0.164062 0.6875 -0.34375 C 0.539062 -0.519531 0.53125 -0.753906 0.65625 -1.046875 C 1.445312 -3.921875 2.34375 -6.800781 3.34375 -9.6875 C 4.351562 -12.570312 5.394531 -15.3125 6.46875 -17.90625 C 7.539062 -20.507812 8.570312 -22.789062 9.5625 -24.75 C 9.757812 -25.082031 10.0625 -25.285156 10.46875 -25.359375 C 10.832031 -25.429688 11.21875 -25.472656 11.625 -25.484375 C 12.039062 -25.503906 12.394531 -25.515625 12.6875 -25.515625 C 12.96875 -25.515625 13.3125 -25.503906 13.71875 -25.484375 C 14.132812 -25.472656 14.535156 -25.429688 14.921875 -25.359375 C 15.335938 -25.285156 15.640625 -25.082031 15.828125 -24.75 C 16.847656 -22.789062 17.890625 -20.507812 18.953125 -17.90625 C 20.015625 -15.3125 21.046875 -12.566406 22.046875 -9.671875 C 23.046875 -6.773438 23.9375 -3.890625 24.71875 -1.015625 C 24.832031 -0.722656 24.828125 -0.484375 24.703125 -0.296875 C 24.585938 -0.117188 24.359375 -0.0078125 24.015625 0.03125 C 23.847656 0.0625 23.59375 0.0820312 23.25 0.09375 C 22.914062 0.101562 22.597656 0.113281 22.296875 0.125 C 21.992188 0.132812 21.785156 0.140625 21.671875 0.140625 C 21.472656 0.140625 21.097656 0.128906 20.546875 0.109375 C 19.992188 0.0859375 19.546875 0.0507812 19.203125 0 C 19.035156 -0.0507812 18.882812 -0.128906 18.75 -0.234375 C 18.613281 -0.347656 18.546875 -0.507812 18.546875 -0.71875 C 18.578125 -1.445312 18.539062 -2.164062 18.4375 -2.875 C 18.34375 -3.59375 18.203125 -4.265625 18.015625 -4.890625 C 17.742188 -5.347656 17.316406 -5.710938 16.734375 -5.984375 C 16.160156 -6.265625 15.4375 -6.421875 14.5625 -6.453125 C 14.007812 -6.472656 13.378906 -6.484375 12.671875 -6.484375 C 11.972656 -6.484375 11.347656 -6.472656 10.796875 -6.453125 C 9.898438 -6.421875 9.179688 -6.257812 8.640625 -5.96875 C 8.097656 -5.6875 7.679688 -5.328125 7.390625 -4.890625 C 7.222656 -4.304688 7.082031 -3.648438 6.96875 -2.921875 C 6.863281 -2.203125 6.820312 -1.46875 6.84375 -0.71875 C 6.84375 -0.507812 6.769531 -0.347656 6.625 -0.234375 C 6.476562 -0.128906 6.3125 -0.0507812 6.125 0 C 5.8125 0.0507812 5.390625 0.0859375 4.859375 0.109375 C 4.328125 0.128906 3.851562 0.140625 3.4375 0.140625 Z M 11.890625 -9.28125 C 12.078125 -9.25 12.335938 -9.234375 12.671875 -9.234375 C 13.015625 -9.234375 13.285156 -9.25 13.484375 -9.28125 C 14.347656 -9.320312 14.953125 -9.523438 15.296875 -9.890625 C 15.648438 -10.253906 15.722656 -10.738281 15.515625 -11.34375 C 15.296875 -12.40625 15.015625 -13.476562 14.671875 -14.5625 C 14.335938 -15.65625 13.960938 -16.789062 13.546875 -17.96875 C 12.972656 -19.375 12.382812 -19.375 11.78125 -17.96875 C 11.394531 -16.789062 11.035156 -15.660156 10.703125 -14.578125 C 10.378906 -13.503906 10.109375 -12.425781 9.890625 -11.34375 C 9.410156 -10.039062 10.078125 -9.351562 11.890625 -9.28125 Z M 11.890625 -9.28125 "/></g></g></g><g fill="#ffffff" fill-opacity="1"><g transform="translate(241.538844, 238.368793)"><g><path d="M 11.34375 0.140625 C 11.144531 0.140625 10.773438 0.117188 10.234375 0.078125 C 9.691406 0.046875 9.273438 0.0195312 8.984375 0 C 8.742188 -0.0507812 8.523438 -0.160156 8.328125 -0.328125 C 8.140625 -0.492188 8.054688 -0.695312 8.078125 -0.9375 C 8.097656 -1.6875 8.140625 -2.640625 8.203125 -3.796875 C 8.265625 -4.960938 8.328125 -6.222656 8.390625 -7.578125 C 8.453125 -8.929688 8.507812 -10.296875 8.5625 -11.671875 C 8.625 -13.046875 8.6875 -14.320312 8.75 -15.5 C 8.8125 -16.6875 8.851562 -17.691406 8.875 -18.515625 C 8.925781 -20.160156 8.382812 -20.984375 7.25 -20.984375 C 6.207031 -20.984375 5.175781 -20.71875 4.15625 -20.1875 C 3.144531 -19.65625 2.390625 -18.96875 1.890625 -18.125 C 1.640625 -17.726562 1.332031 -17.539062 0.96875 -17.5625 C 0.613281 -17.59375 0.4375 -17.875 0.4375 -18.40625 C 0.4375 -18.75 0.441406 -19.195312 0.453125 -19.75 C 0.460938 -20.300781 0.476562 -20.882812 0.5 -21.5 C 0.53125 -22.113281 0.550781 -22.6875 0.5625 -23.21875 C 0.570312 -23.75 0.585938 -24.160156 0.609375 -24.453125 C 0.660156 -24.765625 0.769531 -24.988281 0.9375 -25.125 C 1.113281 -25.257812 1.304688 -25.335938 1.515625 -25.359375 C 2.265625 -25.429688 3.210938 -25.472656 4.359375 -25.484375 C 5.515625 -25.503906 6.707031 -25.515625 7.9375 -25.515625 C 9.164062 -25.515625 10.265625 -25.515625 11.234375 -25.515625 C 11.890625 -25.515625 12.65625 -25.515625 13.53125 -25.515625 C 14.414062 -25.515625 15.316406 -25.503906 16.234375 -25.484375 C 17.148438 -25.472656 18.023438 -25.460938 18.859375 -25.453125 C 19.691406 -25.441406 20.375 -25.410156 20.90625 -25.359375 C 21.457031 -25.316406 21.769531 -25.015625 21.84375 -24.453125 C 21.875 -24.160156 21.898438 -23.75 21.921875 -23.21875 C 21.941406 -22.6875 21.957031 -22.109375 21.96875 -21.484375 C 21.988281 -20.859375 22.003906 -20.265625 22.015625 -19.703125 C 22.023438 -19.148438 22.03125 -18.71875 22.03125 -18.40625 C 22.03125 -17.875 21.847656 -17.59375 21.484375 -17.5625 C 21.117188 -17.539062 20.816406 -17.726562 20.578125 -18.125 C 20.097656 -18.96875 19.410156 -19.65625 18.515625 -20.1875 C 17.617188 -20.71875 16.554688 -20.984375 15.328125 -20.984375 C 14.191406 -20.984375 13.648438 -20.160156 13.703125 -18.515625 C 13.722656 -17.710938 13.757812 -16.71875 13.8125 -15.53125 C 13.875 -14.351562 13.941406 -13.078125 14.015625 -11.703125 C 14.085938 -10.328125 14.15625 -8.957031 14.21875 -7.59375 C 14.28125 -6.226562 14.347656 -4.960938 14.421875 -3.796875 C 14.492188 -2.640625 14.539062 -1.6875 14.5625 -0.9375 C 14.5625 -0.695312 14.460938 -0.484375 14.265625 -0.296875 C 14.078125 -0.117188 13.851562 -0.0078125 13.59375 0.03125 C 13.300781 0.0625 12.898438 0.0859375 12.390625 0.109375 C 11.878906 0.128906 11.53125 0.140625 11.34375 0.140625 Z M 11.34375 0.140625 "/></g></g></g><g fill="#ffffff" fill-opacity="1"><g transform="translate(268.12769, 238.368793)"><g><path d="M 12.9375 0.296875 C 10.539062 0.296875 8.414062 -0.109375 6.5625 -0.921875 C 4.71875 -1.734375 3.273438 -3.019531 2.234375 -4.78125 C 1.203125 -6.539062 0.6875 -8.847656 0.6875 -11.703125 C 0.6875 -14.554688 1.195312 -17.019531 2.21875 -19.09375 C 3.25 -21.175781 4.6875 -22.789062 6.53125 -23.9375 C 8.382812 -25.082031 10.519531 -25.65625 12.9375 -25.65625 C 15.375 -25.65625 17.515625 -25.082031 19.359375 -23.9375 C 21.210938 -22.789062 22.648438 -21.175781 23.671875 -19.09375 C 24.703125 -17.019531 25.21875 -14.554688 25.21875 -11.703125 C 25.21875 -8.847656 24.695312 -6.539062 23.65625 -4.78125 C 22.625 -3.019531 21.179688 -1.734375 19.328125 -0.921875 C 17.484375 -0.109375 15.351562 0.296875 12.9375 0.296875 Z M 12.96875 -4.5 C 14.195312 -4.5 15.304688 -4.738281 16.296875 -5.21875 C 17.296875 -5.695312 18.082031 -6.484375 18.65625 -7.578125 C 19.238281 -8.679688 19.53125 -10.15625 19.53125 -12 C 19.53125 -13.78125 19.242188 -15.332031 18.671875 -16.65625 C 18.109375 -17.988281 17.335938 -19.023438 16.359375 -19.765625 C 15.378906 -20.503906 14.25 -20.875 12.96875 -20.875 C 11.6875 -20.875 10.550781 -20.503906 9.5625 -19.765625 C 8.570312 -19.023438 7.796875 -17.988281 7.234375 -16.65625 C 6.679688 -15.332031 6.40625 -13.78125 6.40625 -12 C 6.40625 -10.15625 6.695312 -8.679688 7.28125 -7.578125 C 7.863281 -6.484375 8.648438 -5.695312 9.640625 -5.21875 C 10.628906 -4.738281 11.738281 -4.5 12.96875 -4.5 Z M 12.96875 -4.5 "/></g></g></g></svg>